HIERARCHY
ROOT Hips
{
	OFFSET 0.000000 88.474243 0.000000
	CHANNELS 6 Xposition Yposition Zposition Zrotation Yrotation Xrotation 
	JOINT Hips_Spine
	{
		OFFSET 0.000000 0.000000 0.000000
		CHANNELS 3 Zrotation Yrotation Xrotation
		JOINT Spine
		{
			OFFSET 0.005100 8.711998 -0.691000
			CHANNELS 3 Zrotation Yrotation Xrotation
			JOINT Spine1
			{
				OFFSET -0.009200 8.660301 -1.275000
				CHANNELS 3 Zrotation Yrotation Xrotation
				JOINT Spine2
				{
					OFFSET 0.006300 9.852501 -1.857000
					CHANNELS 3 Zrotation Yrotation Xrotation
					JOINT Spine2_Neck
					{
						OFFSET 0.000000 0.000000 0.000000
						CHANNELS 3 Zrotation Yrotation Xrotation
						JOINT Neck
						{
							OFFSET 0.016300 11.420799 -0.263300
							CHANNELS 3 Zrotation Yrotation Xrotation
							End Site #name: Head
							{
								OFFSET -0.019200 9.262405 2.362500
							}
						}
					}
					JOINT Spine2_LeftShoulder
					{
						OFFSET 0.000000 0.000000 0.000000
						CHANNELS 3 Zrotation Yrotation Xrotation
						JOINT LeftShoulder
						{
							OFFSET 5.616900 6.732201 -0.345700
							CHANNELS 3 Zrotation Yrotation Xrotation
							JOINT LeftArm
							{
								OFFSET 10.664888 -0.183372 -2.440700
								CHANNELS 3 Zrotation Yrotation Xrotation
								JOINT LeftForeArm
								{
									OFFSET 27.459126 0.000000 0.000000
									CHANNELS 3 Zrotation Yrotation Xrotation
									End Site #name: LeftHand
									{
										OFFSET 21.306858 0.000000 0.000000
									}
								}
							}
						}
					}
					JOINT Spine2_RightShoulder
					{
						OFFSET 0.000000 0.000000 0.000000
						CHANNELS 3 Zrotation Yrotation Xrotation
						JOINT RightShoulder
						{
							OFFSET -5.580300 6.737503 -0.344400
							CHANNELS 3 Zrotation Yrotation Xrotation
							JOINT RightArm
							{
								OFFSET -10.679335 -0.188484 -2.383900
								CHANNELS 3 Zrotation Yrotation Xrotation
								JOINT RightForeArm
								{
									OFFSET -27.503529 0.000000 0.000000
									CHANNELS 3 Zrotation Yrotation Xrotation
									End Site #name: RightHand
									{
										OFFSET -21.306808 0.000000 0.000000
									}
								}
							}
						}
					}
				}
			}
		}
	}
	JOINT Hips_LeftUpLeg
	{
		OFFSET 0.000000 0.000000 0.000000
		CHANNELS 3 Zrotation Yrotation Xrotation
		JOINT LeftUpLeg
		{
			OFFSET 6.857700 -6.739601 0.312100
			CHANNELS 3 Zrotation Yrotation Xrotation
			JOINT LeftLeg
			{
				OFFSET -0.367590 -34.731552 -4.572400
				CHANNELS 3 Zrotation Yrotation Xrotation
				End Site #name: LeftFoot
				{
					OFFSET 0.367590 -34.656704 -6.067400
				}
			}
		}
	}
	JOINT Hips_RightUpLeg
	{
		OFFSET 0.000000 0.000000 0.000000
		CHANNELS 3 Zrotation Yrotation Xrotation
		JOINT RightUpLeg
		{
			OFFSET -6.876100 -6.733299 0.301000
			CHANNELS 3 Zrotation Yrotation Xrotation
			JOINT RightLeg
			{
				OFFSET 0.347353 -34.795158 -4.515900
				CHANNELS 3 Zrotation Yrotation Xrotation
				End Site #name: RightFoot
				{
					OFFSET -0.347353 -34.589367 -6.070300
				}
			}
		}
	}
}
MOTION
Frames: 18
Frame Time: 0.041667
0.000000 -0.000000 0.000000 -23.626022 -2.698242 -54.780158 0.000000 0.000000 0.000000 1.296867 10.787516 62.411459 -0.865532 4.212668 8.856731 0.000000 0.000000 0.000000 -3.663566 2.291988 9.840262 -0.068597 -1.211990 0.556459 -3.663566 2.291988 9.840262 -19.926580 -19.957134 10.145007 -42.466217 -18.162855 -20.297151 -0.000009 -24.173166 0.000004 -3.663566 2.291988 9.840262 -0.262549 28.062360 4.577028 -7.859259 9.440386 -86.359789 -179.999972 65.164508 -179.999974 0.000000 0.000000 0.000000 -3.968849 16.925779 -53.893107 -1.199361 5.476319 53.227237 0.000000 0.000000 0.000000 13.113199 -35.757917 -72.953711 -1.392481 2.241976 128.685201 
1.117634 -3.382572 1.933090 -18.501591 -3.855489 -58.811332 0.000000 0.000000 0.000000 2.157982 11.475437 61.915754 -0.739599 4.467802 8.885170 0.000000 0.000000 0.000000 -2.863281 3.224769 9.504155 -0.317387 -1.216975 0.680632 -2.863281 3.224769 9.504155 -20.485233 -15.389325 8.604327 -51.101801 -18.070281 -16.507240 -0.000023 -25.846629 0.000009 -2.863281 3.224769 9.504155 -0.274974 28.959320 4.625608 -5.160210 8.008439 -86.367285 179.999955 65.494372 179.999990 0.000000 0.000000 0.000000 2.945540 10.035818 -51.354852 -0.199998 -2.159376 35.476491 0.000000 0.000000 0.000000 0.259152 -29.293395 -64.279208 -2.377395 -2.156684 133.752575 
2.155411 -5.951542 4.727333 -14.666533 -4.766698 -64.258268 0.000000 0.000000 0.000000 3.888491 11.680401 62.879259 -0.424976 4.677903 9.133773 0.000000 0.000000 0.000000 -1.948711 4.070392 9.449548 -0.360687 -1.258253 0.802215 -1.948711 4.070392 9.449548 -20.162503 -10.107374 6.490794 -59.814973 -17.009518 -12.687009 -0.000018 -26.827783 0.000012 -1.948711 4.070392 9.449548 2.612999 29.274853 5.135238 -2.422170 5.980850 -82.881167 -179.999968 67.921554 -179.999996 0.000000 0.000000 0.000000 10.302875 4.105442 -48.113424 3.439625 -9.576126 33.942217 0.000000 0.000000 0.000000 -12.650050 -19.997158 -61.176759 -5.210703 -4.235196 140.126007 
3.156003 -6.878013 8.136124 -11.930310 -5.059608 -70.321370 0.000000 0.000000 0.000000 5.792882 11.463872 64.466423 -0.080679 4.707435 9.426829 0.000000 0.000000 0.000000 -1.097153 4.600709 9.532245 -0.079981 -1.430493 1.245830 -1.097153 4.600709 9.532245 -21.348877 -5.664592 4.409006 -64.279014 -14.676553 -9.985589 0.000020 -25.635905 -0.000005 -1.097153 4.600709 9.532245 9.008698 28.764161 6.244123 1.842776 0.145986 -72.347542 -179.999934 71.932042 -179.999978 0.000000 0.000000 0.000000 17.452510 0.544380 -53.314171 0.388873 -11.567931 58.627554 0.000000 0.000000 0.000000 -23.225578 -8.765806 -60.570378 -5.820908 -3.700776 142.741367 
4.415205 -5.824859 11.454552 -9.609626 -4.016257 -75.060880 0.000000 0.000000 0.000000 6.394975 10.753466 65.138910 0.083126 4.435685 9.517010 0.000000 0.000000 0.000000 -0.568597 4.605812 9.510873 0.396228 -1.523499 1.981183 -0.568597 4.605812 9.510873 -26.018083 -3.460583 3.219591 -61.292870 -14.911960 -8.722416 0.000005 -16.398820 0.000003 -0.568597 4.605812 9.510873 17.104409 27.820148 7.656349 9.626024 -9.766835 -59.830966 179.999838 79.707523 179.999896 0.000000 0.000000 0.000000 21.932470 -0.314498 -59.719692 -3.521131 -8.395254 88.547942 0.000000 0.000000 0.000000 -26.393273 1.968351 -60.828752 -2.297217 -3.173190 138.430652 
6.702337 -3.317516 13.717041 -7.219956 -2.057427 -76.843512 0.000000 0.000000 0.000000 5.767053 9.357964 63.801761 0.006036 3.800631 9.284157 0.000000 0.000000 0.000000 -0.440717 4.032308 9.252970 0.746868 -1.352987 2.756928 -0.440717 4.032308 9.252970 -32.315621 -3.927355 3.136233 -55.276141 -16.018730 -8.456427 0.000012 -3.911696 0.000000 -0.440717 4.032308 9.252970 22.710665 27.018599 8.757616 22.147719 -12.575382 -49.577395 0.000160 85.276455 0.000204 0.000000 0.000000 0.000000 24.615690 0.827063 -62.734424 -2.570211 -3.388663 112.999657 0.000000 0.000000 0.000000 -24.114074 9.144746 -56.925789 -1.139249 0.338754 134.547194 
9.529876 -0.697807 14.938126 -5.015173 0.682023 -75.414527 0.000000 0.000000 0.000000 4.464612 6.620601 60.689170 -0.132152 2.827117 8.831074 0.000000 0.000000 0.000000 -0.462795 3.015860 8.822037 0.730000 -1.012344 3.331107 -0.462795 3.015860 8.822037 -35.320862 -6.404198 3.583287 -51.826388 -12.664267 -10.173060 0.000032 -2.334437 0.000015 -0.462795 3.015860 8.822037 25.280883 26.679000 9.417676 31.585042 -9.763121 -44.936386 0.000028 63.860629 0.000011 0.000000 0.000000 0.000000 24.821824 2.561460 -61.808545 1.896433 -2.544993 131.129598 0.000000 0.000000 0.000000 -18.106849 11.288161 -53.897363 -4.293761 4.920096 123.588317 
11.660403 0.543274 15.158386 -3.802453 3.591766 -72.084433 0.000000 0.000000 0.000000 3.961869 2.805878 57.435113 -0.064138 1.626825 8.413717 0.000000 0.000000 0.000000 -0.275676 1.752045 8.421705 0.345358 -0.640471 3.471527 -0.275676 1.752045 8.421705 -32.110262 -9.882534 4.040979 -51.247767 -9.035728 -14.744856 -0.000007 -9.827646 -0.000002 -0.275676 1.752045 8.421705 26.648117 26.647214 9.853222 36.387103 -8.376104 -40.400908 0.000012 44.514972 -0.000008 0.000000 0.000000 0.000000 22.068340 5.630031 -58.491089 3.970182 -4.128232 141.840091 0.000000 0.000000 0.000000 -12.067992 10.733767 -53.694319 -6.473241 6.736466 106.562593 
12.404061 -0.120571 14.955017 -3.933313 6.990443 -68.988649 0.000000 0.000000 0.000000 4.317035 -1.036965 56.019047 0.291640 0.352933 8.286655 0.000000 0.000000 0.000000 0.240597 0.391992 8.278280 -0.186849 -0.307661 2.991494 0.240597 0.391992 8.278280 -23.996082 -13.914840 4.421593 -47.925036 -9.264643 -22.157582 0.000005 -19.270667 -0.000001 0.240597 0.391992 8.278280 28.342854 26.197453 10.124542 40.545894 -12.033006 -35.752463 0.000009 33.771134 -0.000004 0.000000 0.000000 0.000000 16.080100 11.258954 -57.618320 2.430893 -3.479156 145.177991 0.000000 0.000000 0.000000 -7.134484 9.411352 -53.829246 -8.276340 7.078960 87.902722 
12.075510 -2.257412 14.724442 -4.579324 11.030614 -67.957775 0.000000 0.000000 0.000000 4.367116 -4.267079 57.642971 0.712466 -0.862445 8.565104 0.000000 0.000000 0.000000 0.844937 -0.939340 8.523937 -0.528701 -0.079051 1.928482 0.844937 -0.939340 8.523937 -15.053770 -18.530344 4.650417 -39.547038 -7.465027 -32.895951 -0.000004 -37.623609 -0.000004 0.844937 -0.939340 8.523937 29.447873 24.530463 9.848865 48.262901 -14.781660 -35.035974 -0.000004 31.866862 -0.000008 0.000000 0.000000 0.000000 8.579325 17.145288 -61.146405 -0.352903 -1.407282 146.503325 0.000000 0.000000 0.000000 -2.979312 7.092959 -53.907336 -10.920727 5.178693 73.763192 
11.586113 -5.365474 14.717239 -4.008860 14.950347 -69.314311 0.000000 0.000000 0.000000 3.127511 -6.605600 61.872486 0.845873 -1.929851 9.145171 0.000000 0.000000 0.000000 1.135339 -2.110514 9.095674 -0.425008 0.021408 0.621747 1.135339 -2.110514 9.095674 -8.572495 -23.522877 4.967340 -27.982411 -4.713048 -47.307044 0.000018 -58.639633 -0.000029 1.135339 -2.110514 9.095674 27.766881 21.975408 8.684309 62.690178 -10.776597 -38.406564 0.000025 25.539785 0.000005 0.000000 0.000000 0.000000 1.586899 20.675272 -68.324360 -0.928653 -0.827658 148.939874 0.000000 0.000000 0.000000 2.049815 3.067967 -55.175848 -12.177289 1.706392 70.094334 
11.581494 -8.445770 14.774498 -0.633327 19.030372 -71.023414 0.000000 0.000000 0.000000 -0.158520 -7.835282 66.415004 0.521343 -2.788392 9.714954 0.000000 0.000000 0.000000 0.903486 -3.011147 9.695388 -0.039131 0.080723 -0.350814 0.903486 -3.011147 9.695388 -4.087321 -28.025654 5.772727 -17.629603 -4.493961 -60.838854 0.000001 -78.336368 -0.000028 0.903486 -3.011147 9.695388 22.489315 20.219073 6.908639 75.628965 -11.687279 -43.863730 0.000006 35.422714 -0.000006 0.000000 0.000000 0.000000 -4.889224 23.549458 -73.146196 0.751693 -1.824044 150.586065 0.000000 0.000000 0.000000 8.386655 -2.974214 -57.047539 -11.493994 -1.126502 75.238334 
12.383423 -10.397430 14.636215 5.615366 23.366190 -69.787524 0.000000 0.000000 0.000000 -4.592408 -8.264893 68.326024 -0.103710 -3.401235 9.903085 0.000000 0.000000 0.000000 0.311988 -3.601053 9.918732 0.002746 0.227170 -0.438428 0.311988 -3.601053 9.918732 -1.044242 -30.804707 6.825530 -7.957518 -10.143596 -69.428924 179.999931 -85.781440 -179.999798 0.311988 -3.601053 9.918732 15.014038 20.285127 5.110194 87.401179 -14.605739 -47.551052 0.000002 49.108073 0.000003 0.000000 0.000000 0.000000 -15.767197 29.479515 -76.656042 2.211738 -3.727713 150.456967 0.000000 0.000000 0.000000 15.140074 -10.772508 -58.343481 -10.737460 -2.870893 83.141339 
13.853325 -10.324585 13.986931 13.958119 26.849395 -63.721856 0.000000 0.000000 0.000000 -8.443204 -8.706347 66.252727 -0.699334 -3.754366 9.524919 0.000000 0.000000 0.000000 -0.281530 -3.903560 9.544186 -0.689014 0.453079 0.414793 -0.281530 -3.903560 9.544186 0.614161 -31.103154 7.504296 1.557198 -20.279521 -73.877616 179.999981 -77.321187 179.999882 -0.281530 -3.903560 9.544186 8.177396 21.635972 3.786843 93.100515 -15.942964 -47.827559 0.000002 52.057366 0.000006 0.000000 0.000000 0.000000 -34.853271 38.434147 -82.953984 0.863644 -6.259093 147.980994 0.000000 0.000000 0.000000 20.733281 -18.719560 -58.640132 -11.334461 -3.182307 90.779112 
15.502915 -8.119667 12.578468 23.468647 28.159642 -54.000417 0.000000 0.000000 0.000000 -10.414914 -9.243545 61.508106 -1.042116 -3.855465 8.739863 0.000000 0.000000 0.000000 -0.641368 -3.959793 8.738546 -1.666615 0.572947 1.583533 -0.641368 -3.959793 8.738546 -1.485365 -29.837561 8.320339 10.007494 -28.781704 -76.585710 179.999962 -77.101690 179.999909 -0.641368 -3.959793 8.738546 4.593960 23.447749 3.292731 92.204697 -16.176584 -47.419850 -0.000013 49.591247 -0.000019 0.000000 0.000000 0.000000 -56.458569 44.016155 -93.598963 -1.583142 -10.914830 145.029280 0.000000 0.000000 0.000000 23.255120 -23.967966 -57.530530 -11.010455 -1.995759 97.160073 
16.880879 -4.779941 10.502426 32.997768 27.462229 -43.576604 0.000000 0.000000 0.000000 -10.860019 -9.339277 56.976996 -1.131773 -3.772673 7.945013 0.000000 0.000000 0.000000 -0.767376 -3.849365 7.935830 -2.324744 0.445062 2.218919 -0.767376 -3.849365 7.935830 -3.013289 -28.593164 9.288577 15.904122 -33.846535 -79.653020 179.999908 -79.812921 -179.999913 -0.767376 -3.849365 7.935830 4.878074 25.223897 3.663645 86.933706 -16.078969 -48.260500 0.000011 47.233886 0.000009 0.000000 0.000000 0.000000 -54.074276 45.047920 -95.337832 -6.629404 -6.037472 142.140451 0.000000 0.000000 0.000000 21.260201 -24.730270 -55.241499 -9.411018 -0.777473 101.359802 
17.590191 -1.211940 7.608185 41.133550 25.782360 -34.605009 0.000000 0.000000 0.000000 -10.761079 -8.955475 54.878845 -1.074416 -3.660222 7.467713 0.000000 0.000000 0.000000 -0.749011 -3.732279 7.476358 -2.657383 0.172443 1.972458 -0.749011 -3.732279 7.476358 -0.777615 -27.624092 9.738512 18.035653 -35.223716 -82.153580 179.999697 -83.011169 -179.999484 -0.749011 -3.732279 7.476358 7.703633 26.739234 4.614209 79.273757 -15.926897 -49.042024 0.000010 46.937401 0.000003 0.000000 0.000000 0.000000 -44.592817 43.214637 -88.765617 -7.185054 -2.833567 136.136413 0.000000 0.000000 0.000000 15.703381 -22.438482 -53.098047 -8.348963 -1.105188 101.477397 
17.308590 2.236340 4.313236 46.542817 24.092124 -27.426516 0.000000 0.000000 0.000000 -10.303850 -8.794838 55.157599 -0.924407 -3.675606 7.330754 0.000000 0.000000 0.000000 -0.610697 -3.771313 7.356333 -2.917695 -0.031097 1.235263 -0.610697 -3.771313 7.356333 2.858121 -26.653935 9.802885 16.843996 -33.206056 -81.803986 -179.999565 -84.816151 179.999639 -0.610697 -3.771313 7.356333 11.297257 27.941028 5.781743 70.109203 -14.508238 -48.659215 -0.000002 46.121805 -0.000006 0.000000 0.000000 0.000000 -31.411845 40.178965 -78.309512 -5.118322 -1.081237 128.271483 0.000000 0.000000 0.000000 10.943431 -19.023456 -52.109186 -7.894202 -2.966178 95.577396 
